<!DOCTYPE svg PUBLIC "-//W3C//DTD SVG 1.1//EN" "http://www.w3.org/Graphics/SVG/1.1/DTD/svg11.dtd">

<!-- Uploaded to: SVG Repo, www.svgrepo.com, Transformed by: SVG Repo Mixer Tools -->
<svg fill="#F5455C" width="24px" height="24px" viewBox="0 0 32 32" version="1.1" xmlns="http://www.w3.org/2000/svg">

<g id="SVGRepo_bgCarrier" stroke-width="0"/>

<g id="SVGRepo_tracerCarrier" stroke-linecap="round" stroke-linejoin="round"/>

<g id="SVGRepo_iconCarrier"> <title>user-check</title> <path d="M13.5 15.824c3.48-0 6.302-2.822 6.302-6.302s-2.822-6.302-6.302-6.302-6.302 2.822-6.302 6.302c0 0 0 0 0 0.001v-0c0.004 3.479 2.824 6.298 6.302 6.302h0zM13.5 4.72c2.652 0 4.802 2.15 4.802 4.802s-2.15 4.802-4.802 4.802c-2.652 0-4.802-2.15-4.802-4.802v-0c0.003-2.651 2.151-4.8 4.802-4.803h0zM13.5 18.033c-5.956 0.025-10.935 4.183-12.216 9.753l-0.016 0.085c-0.011 0.048-0.017 0.103-0.017 0.16 0 0.414 0.336 0.75 0.75 0.75 0.357 0 0.656-0.25 0.731-0.585l0.001-0.005c1.124-4.988 5.517-8.658 10.768-8.658s9.643 3.67 10.754 8.584l0.014 0.074c0.072 0.34 0.37 0.591 0.726 0.591 0.059 0 0.117-0.007 0.172-0.020l-0.005 0.001c0.34-0.076 0.59-0.375 0.59-0.733 0-0.057-0.006-0.112-0.018-0.165l0.001 0.005c-1.299-5.654-6.276-9.812-12.23-9.838h-0.003zM30.506 11.078c-0.133-0.121-0.31-0.195-0.505-0.195-0.219 0-0.416 0.093-0.553 0.242l-0 0.001-4.726 5.166-1.198-1.189c-0.136-0.136-0.323-0.22-0.531-0.22-0.415 0-0.751 0.336-0.751 0.751 0 0.209 0.085 0.397 0.223 0.533l0 0 1.752 1.739 0.017 0.007 0.007 0.015c0.13 0.122 0.305 0.197 0.498 0.197 0.2 0 0.381-0.081 0.513-0.211l-0 0c0.008-0.007 0.020-0.004 0.028-0.012l0.005-0.012 0.015-0.011 5.254-5.742c0.122-0.133 0.197-0.311 0.197-0.506 0-0.219-0.094-0.416-0.243-0.553l-0.001-0.001z"/> </g>

</svg>