<?xml version="1.0" encoding="UTF-8"?>
<svg width="700pt" height="700pt" version="1.1" viewBox="0 0 700 700" xmlns="http://www.w3.org/2000/svg">
 <path d="m284.67 0c29.375 0 57.039 13.832 74.668 37.332l28 37.336h130.66c61.855 0 112 50.145 112 112v261.33c0 61.855-50.145 112-112 112h-336c-61.855 0-112-50.145-112-112v-336c0-61.855 50.145-112 112-112zm0 37.332h-102.67c-41.238 0-74.664 33.43-74.664 74.668v336c0 41.238 33.426 74.668 74.664 74.668h336c41.238 0 74.668-33.43 74.668-74.668v-261.33c0-41.238-33.43-74.668-74.668-74.668l-130.66-0.019531v0.019531h-93.336c-10.309 0-18.664-8.3555-18.664-18.668 0-10.309 8.3555-18.664 18.664-18.664h46.668l-11.199-14.934c-9.8203-13.094-24.836-21.188-41.043-22.273zm-46.668 317.34c10.309 0 18.668 8.3555 18.668 18.664v37.336c0 10.309-8.3594 18.664-18.668 18.664h-37.332c-10.309 0-18.668-8.3555-18.668-18.664v-37.336c0-10.309 8.3594-18.664 18.668-18.664zm186.67 18.664c10.309 0 18.668 8.3594 18.668 18.668s-8.3594 18.668-18.668 18.668h-93.332c-10.312 0-18.668-8.3594-18.668-18.668s8.3555-18.668 18.668-18.668zm-186.67-168c10.309 0 18.668 8.3594 18.668 18.668v37.332c0 10.312-8.3594 18.668-18.668 18.668h-37.332c-10.309 0-18.668-8.3555-18.668-18.668v-37.332c0-10.309 8.3594-18.668 18.668-18.668zm261.34 18.668c10.309 0 18.664 8.3555 18.664 18.668 0 10.309-8.3555 18.664-18.664 18.664h-168c-10.312 0-18.668-8.3555-18.668-18.664 0-10.312 8.3555-18.668 18.668-18.668z" fill-rule="evenodd"/>
</svg>
