<!DOCTYPE svg PUBLIC "-//W3C//DTD SVG 1.1//EN" "http://www.w3.org/Graphics/SVG/1.1/DTD/svg11.dtd">
<!-- Uploaded to: SVG Repo, www.svgrepo.com, Transformed by: SVG Repo Mixer Tools -->
<svg height="800px" width="800px" version="1.1" id="_x32_" xmlns="http://www.w3.org/2000/svg" xmlns:xlink="http://www.w3.org/1999/xlink" viewBox="0 0 512 512" xml:space="preserve" fill="#ffffff">
<g id="SVGRepo_bgCarrier" stroke-width="0"/>
<g id="SVGRepo_tracerCarrier" stroke-linecap="round" stroke-linejoin="round"/>
<g id="SVGRepo_iconCarrier"> <style type="text/css"> .st0{fill:#ffffff;} </style> <g> <path class="st0" d="M394.429,111.309h28.776h33.736h43.591c4.624,0,8.386-3.752,8.386-8.385V85.977 c0-4.634-3.761-8.404-8.386-8.404H456.94h-33.736h-28.776c-4.642,0-8.403,3.77-8.403,8.404v16.947 C386.026,107.557,389.787,111.309,394.429,111.309z"/> <path class="st0" d="M504.222,210.339h0.008l-0.008-0.018l-0.212-0.431l-0.273-0.397c-8.623-12.701-22.98-20.505-38.474-20.505 H384.81l-12.727-36.361l-0.379,0.098c-8.905-19.334-28.027-32.396-49.854-32.396H145.96c-2.009-0.027-4.061-1.136-5.268-3.691 l0.017,0.035c-8.641-19.017-27.49-31.542-48.55-31.542H46.789c-0.035,0-0.043-0.008-0.061-0.008 c-15.212,0.008-29.323,7.54-37.998,19.836l-0.599,0.872l-0.124,0.378C2.757,114.154,0,123.349,0,132.668 c0,4.801,0.74,9.636,2.194,14.34H2.184l0.009,0.035l0.026,0.062l0.018,0.062v0.017l76.631,249.323v0.035l0.335,1.039 c6.95,21.95,27.305,36.836,50.303,36.836l274.567,0.009c19.863-0.009,37.734-11.178,46.718-28.459l0.441,0.14l57.904-153.208 l0.07-0.202l0.017-0.062l0.027-0.035c1.841-5.232,2.748-10.693,2.748-16.101C512,227.338,509.348,218.239,504.222,210.339z M475.824,240.797l-55.403,146.568l-0.026,0.106c-2.449,6.906-9.001,11.521-16.322,11.521l-274.567-0.018 c-7.548,0.018-14.243-4.88-16.524-12.084L36.017,136.465l0.026,0.044c-0.405-1.259-0.599-2.554-0.599-3.84 c0-2.616,0.802-5.179,2.255-7.275c2.229-3.136,5.576-4.818,9.047-4.818H92.16c6.8,0,13.195,4.034,16.304,10.808 c6.685,14.7,21.262,24.381,37.497,24.381H321.85c8.35,0,16.004,5.522,18.779,14.252l0.07,0.211l9.046,25.852H209.132 c-20.408,0-38.439,13.106-45.256,32.352l-35.849,103.602l26.785,9.266l35.814-103.478l-0.035,0.124 c2.986-8.332,10.438-13.511,18.541-13.511h256.132c3.506,0,6.95,1.752,9.16,5.003c1.375,2.043,2.14,4.527,2.132,7.064 C476.556,237.952,476.309,239.405,475.824,240.797z"/> </g> </g>
</svg>