<!DOCTYPE svg PUBLIC "-//W3C//DTD SVG 1.1//EN" "http://www.w3.org/Graphics/SVG/1.1/DTD/svg11.dtd">

<!-- Uploaded to: SVG Repo, www.svgrepo.com, Transformed by: SVG Repo Mixer Tools -->
<svg width="24px" height="24px" viewBox="0 0 32 32" fill="none" xmlns="http://www.w3.org/2000/svg" stroke="#F5455C">

<g id="SVGRepo_bgCarrier" stroke-width="0"/>

<g id="SVGRepo_tracerCarrier" stroke-linecap="round" stroke-linejoin="round"/>

<g id="SVGRepo_iconCarrier"> <path fill-rule="evenodd" clip-rule="evenodd" d="M25.0133 4H7.0019C5.344 4 4 5.34315 4 7V25C4 26.6569 5.344 28 7.0019 28H25.0133C26.6653 27.9916 28 26.6509 28 25V7C28 5.34907 26.6653 4.00838 25.0133 4ZM9 7H13C14.1046 7 15 7.89543 15 9V23C15 24.1046 14.1046 25 13 25H9C7.89543 25 7 24.1046 7 23V9C7 7.89543 7.89543 7 9 7ZM23 7H19C17.8954 7 17 7.89543 17 9V16C17 17.1046 17.8954 18 19 18H23C24.1046 18 25 17.1046 25 16V9C25 7.89543 24.1046 7 23 7Z" fill="url(#paint0_linear_87_7663)"/> <defs> <linearGradient id="paint0_linear_87_7663" x1="16.0076" y1="28" x2="16.0076" y2="4" gradientUnits="userSpaceOnUse"> <stop stop-color="#F5455C"/> <stop offset="0.51698" stop-color="#F5455C"/> <stop offset="1" stop-color="#F5455C"/> </linearGradient> </defs> </g>

</svg>